<?xml version="1.0" encoding="UTF-8"?><svg id="a" xmlns="http://www.w3.org/2000/svg" width="5.5in" height="3.85in" viewBox="0 0 396 277.2"><path d="M81.808,114.168s-.037-.793-.037-2.133c.001-1.547,1.601-2.222,1.601-2.222,0,0,9.634-4.994,10.11-5.253s.821-.302,1.469-.13,1.063-.334,1.21-.864,1.642-1.253,1.642-1.253l28.124-14.063" fill="none" stroke="#231f20" stroke-linecap="round" stroke-linejoin="round" stroke-width=".5"/><path d="M165.769,95.1c.01,1.361.017,2.368.017,2.368" fill="none" stroke="#231f20" stroke-linecap="round" stroke-linejoin="round" stroke-width=".5"/><path d="M211.743,116.037c0,1.15-1.858,2.083-4.149,2.083s-4.149-.933-4.149-2.083c0-.315.139-.613.388-.881" fill="none" stroke="#231f20" stroke-linecap="round" stroke-linejoin="round" stroke-width=".5"/><path d="M211.493,115.764c-.512.897-2.305,1.336-4.311.992-2.259-.387-3.932-1.62-3.738-2.754.077-.449.434-.815.979-1.069" fill="none" stroke="#231f20" stroke-linecap="round" stroke-linejoin="round" stroke-width=".5"/><path d="M209.623,114.069c-.711.126-1.555.126-2.44-.025-2.259-.387-3.932-1.62-3.738-2.754" fill="none" stroke="#231f20" stroke-linecap="round" stroke-linejoin="round" stroke-width=".5"/><path d="M170.641,133.001c-1.486,0-2.69-.605-2.69-1.351s1.204-1.351,2.69-1.351,2.69.605,2.69,1.351" fill="none" stroke="#231f20" stroke-linecap="round" stroke-linejoin="round" stroke-width=".5"/><path d="M167.951,131.651v1.533c0,.746,1.204,1.351,2.69,1.351" fill="none" stroke="#231f20" stroke-linecap="round" stroke-linejoin="round" stroke-width=".5"/><path d="M170.48,135.46c-1.142-.147-2.005-.705-1.927-1.247" fill="none" stroke="#231f20" stroke-linecap="round" stroke-linejoin="round" stroke-width=".5"/><path d="M170.64,139.11c-1.153,0-2.088-.443-2.088-.99,0-.15.07-.292.195-.419" fill="none" stroke="#231f20" stroke-linecap="round" stroke-linejoin="round" stroke-width=".5"/><path d="M170.433,137.803c-1.136-.184-1.978-.77-1.881-1.309.031-.172.155-.319.345-.433" fill="none" stroke="#231f20" stroke-linecap="round" stroke-linejoin="round" stroke-width=".5"/><path d="M170.433,136.661c-1.136-.184-1.978-.77-1.881-1.309.032-.175.159-.324.355-.438" fill="none" stroke="#231f20" stroke-linecap="round" stroke-linejoin="round" stroke-width=".5"/><path d="M165.721,97.293c-2.054-.125-3.646-1.003-3.646-2.068" fill="none" stroke="#231f20" stroke-linecap="round" stroke-linejoin="round" stroke-width=".5"/><path d="M165.813,95.944c-.871-.149-1.655-.424-2.279-.771" fill="none" stroke="#231f20" stroke-linecap="round" stroke-linejoin="round" stroke-width=".5"/><polyline points="176.52 97.753 171.244 100.389 165.885 97.71 139.423 110.881 164.795 123.824 170.445 121.05 175.581 123.721 202.082 110.367" fill="none" stroke="#231f20" stroke-linecap="round" stroke-linejoin="round" stroke-width=".5"/><line x1="139.423" y1="110.881" x2="139.313" y2="122.596" fill="none" stroke="#231f20" stroke-linecap="round" stroke-linejoin="round" stroke-width=".5"/><line x1="202.082" y1="110.367" x2="202.234" y2="118.686" fill="none" stroke="#231f20" stroke-linecap="round" stroke-linejoin="round" stroke-width=".5"/><line x1="164.795" y1="123.824" x2="164.897" y2="137.468" fill="none" stroke="#231f20" stroke-linecap="round" stroke-linejoin="round" stroke-width=".5"/><line x1="175.581" y1="123.721" x2="175.638" y2="131.041" fill="none" stroke="#231f20" stroke-linecap="round" stroke-linejoin="round" stroke-width=".5"/><line x1="170.445" y1="121.05" x2="170.421" y2="130.152" fill="none" stroke="#231f20" stroke-linecap="round" stroke-linejoin="round" stroke-width=".5"/><polyline points="116.689 117.516 122.467 114.673 140.841 123.762 134.939 126.687" fill="none" stroke="#231f20" stroke-linecap="round" stroke-linejoin="round" stroke-width=".5"/><line x1="140.841" y1="129.742" x2="140.841" y2="123.762" fill="none" stroke="#231f20" stroke-linecap="round" stroke-linejoin="round" stroke-width=".5"/><path d="M360.486,101.136l-10.16,5.286-1.095-.626-14.702,7.429-1.642-.938s-.626-.469-1.955.313-14.702,7.351-14.702,7.351c0,0-1.442.577-.33,1.072,1.215.54,1.154.659,1.154.659,0,0,.55.164.453,1.566l-.014,1.032" fill="none" stroke="#231f20" stroke-linecap="round" stroke-linejoin="round" stroke-width=".5"/><path d="M299.553,112.083c-13.11,6.601-30.265,15.216-30.265,15.216l.167,1.669s4.757,2.337,6.51,3.505,3.672-.334,3.672-.334l48.934-24.634" fill="none" stroke="#231f20" stroke-linecap="round" stroke-linejoin="round" stroke-width=".5"/><line x1="25.485" y1="144.11" x2="69.433" y2="122.136" fill="none" stroke="#231f20" stroke-linecap="round" stroke-linejoin="round" stroke-width=".5"/><line x1="37.387" y1="161.277" x2="70.692" y2="144.796" fill="none" stroke="#231f20" stroke-linecap="round" stroke-linejoin="round" stroke-width=".5"/><polygon points="143.621 141.715 154.009 136.671 94.497 106.8 84.179 111.887 143.621 141.715" fill="none" stroke="#231f20" stroke-linecap="round" stroke-linejoin="round" stroke-width=".5"/><path d="M83.791,114.416s.526-1.084,1.742-.427,56.749,28.489,56.749,28.489c0,0,1.38.624,1.413,2.892s.066,19.847.066,19.847c0,0-.197,2.136-1.676,1.446s-56.749-28.259-56.749-28.259" fill="none" stroke="#231f20" stroke-linecap="round" stroke-linejoin="round" stroke-width=".5"/><line x1="188.684" y1="191.692" x2="84.458" y2="139.658" fill="none" stroke="#231f20" stroke-linecap="round" stroke-linejoin="round" stroke-width=".5"/><line x1="149.149" y1="211.482" x2="200.113" y2="186.204" fill="none" stroke="#231f20" stroke-linecap="round" stroke-linejoin="round" stroke-width=".5"/><line x1="200.929" y1="187.698" x2="149.421" y2="213.656" fill="none" stroke="#231f20" stroke-linecap="round" stroke-linejoin="round" stroke-width=".5"/><line x1="200.723" y1="208.461" x2="149.344" y2="234.53" fill="none" stroke="#231f20" stroke-linecap="round" stroke-linejoin="round" stroke-width=".5"/><polyline points="198.395 209.711 201.002 210.775 213.775 204.229 214.893 204.761 226.707 198.748 228.251 196.033 231.288 194.544 234.584 194.916 394.518 114.949 394.518 106.483 391.392 101.925 391.411 95.589" fill="none" stroke="#231f20" stroke-linecap="round" stroke-linejoin="round" stroke-width=".5"/><path d="M227.93,196.36v-6.724s.516-4.009,3.228-4.866c0,0,2.295-.672,2.513,1.565v8.182" fill="none" stroke="#231f20" stroke-linecap="round" stroke-linejoin="round" stroke-width=".5"/><path d="M201.056,210.438v-23.397s-.737-1.473-2.903-1.776v1.646" fill="none" stroke="#231f20" stroke-linecap="round" stroke-linejoin="round" stroke-width=".5"/><path d="M201.056,187.041l13.171-6.629s-.737-1.473-2.903-1.776l-13.171,6.629" fill="none" stroke="#231f20" stroke-linecap="round" stroke-linejoin="round" stroke-width=".5"/><path d="M215.527,204.286l-.087-23.75,10.493-5.281s1.791-1.211,3.025-.215c1.422,1.149,2.216,1.942,4.159,1.04l1.944-.902" fill="none" stroke="#231f20" stroke-linecap="round" stroke-linejoin="round" stroke-width=".5"/><path d="M234.082,173.67c1.109.51,1.126,2.338,1.126,2.338v3.309s.199,3.119,3.497,1.739c3.151-1.318,3.353-5.228,3.353-5.228v-4.074c0-1.154-.829-1.767-.829-1.767.036-1.55-1.19-.901-1.19-.901l-4.978,2.54s-.855.442-.929,1.901" fill="none" stroke="#231f20" stroke-linecap="round" stroke-linejoin="round" stroke-width=".5"/><line x1="215.527" y1="202.324" x2="215.44" y2="176.516" fill="none" stroke="#231f20" stroke-linecap="round" stroke-linejoin="round" stroke-width=".5"/><polyline points="393.716 92.526 393.702 94.331 337.441 122.653" fill="none" stroke="#231f20" stroke-linecap="round" stroke-linejoin="round" stroke-width=".5"/><path d="M214.227,180.412v-3.639l11.717-5.551.766-1.531,92.168-45.941s.923-.074,1.034.738.443,6.091.443,6.091c0,0,1.218.812,1.07,2.104l15.799-7.789s.849-.96-.074-2.252l.185-6.755s.332-1.477,1.403-2.067l27.738-13.8" fill="none" stroke="#231f20" stroke-linecap="round" stroke-linejoin="round" stroke-width=".5"/><line x1="242.39" y1="171.542" x2="321.041" y2="132.113" fill="none" stroke="#231f20" stroke-linecap="round" stroke-linejoin="round" stroke-width=".5"/><line x1="140.961" y1="125.65" x2="170.601" y2="140.512" fill="none" stroke="#231f20" stroke-linecap="round" stroke-linejoin="round" stroke-width=".5"/><line x1="165.514" y1="137.774" x2="168.509" y2="136.2" fill="none" stroke="#231f20" stroke-linecap="round" stroke-linejoin="round" stroke-width=".5"/><line x1="178.656" y1="145.258" x2="186.24" y2="141.387" fill="none" stroke="#231f20" stroke-linecap="round" stroke-linejoin="round" stroke-width=".5"/><line x1="169.917" y1="149.717" x2="172.044" y2="148.631" fill="none" stroke="#231f20" stroke-linecap="round" stroke-linejoin="round" stroke-width=".5"/><polyline points="211.324 178.636 211.26 175.373 214.669 173.572 217.429 174.875" fill="none" stroke="#231f20" stroke-linecap="round" stroke-linejoin="round" stroke-width=".5"/><line x1="214.227" y1="176.774" x2="211.26" y2="175.373" fill="none" stroke="#231f20" stroke-linecap="round" stroke-linejoin="round" stroke-width=".5"/><line x1="114.559" y1="116.835" x2="155.323" y2="96.779" fill="none" stroke="#231f20" stroke-linecap="round" stroke-linejoin="round" stroke-width=".5"/><path d="M68.389,121.929v-1.109l14.095-6.651,1.9.871s.713.475.713,1.346v2.771l-12.511,6.335-1.188-.158v-2.771s-.108-1.383-3.009-1.742" fill="none" stroke="#231f20" stroke-linecap="round" stroke-linejoin="round" stroke-width=".5"/><path d="M69.612,145.531l1.764.83,13.7-7.005-.078-2.788-1.199-.472-11.333,5.595s-1.343.647-1.297,1.764l.052,2.387" fill="none" stroke="#231f20" stroke-linecap="round" stroke-linejoin="round" stroke-width=".5"/><path d="M10.298,145.134l7.58-3.679s12.708,1.449,18.728,18.505c0,0,5.239,14.269-3.902,21.849l-8.478,4.102s-2.792.423-6.219-1.185l-7.319-3.427s-1.1-1.227-1.058-2.623.169-4.061.169-4.061" fill="none" stroke="#231f20" stroke-linecap="round" stroke-linejoin="round" stroke-width=".5"/><path d="M9.629,153.049l-.111-6.689s.446-1.561,3.344-1.226c0,0,12.82,4.793,16.498,17.948,0,0,6.689,14.603-3.01,21.738" fill="none" stroke="#231f20" stroke-linecap="round" stroke-linejoin="round" stroke-width=".5"/><path d="M12.042,160.741v-7.53s.719-4.823,4.696-3.892c0,0,9.645,3.427,12.818,20.729,0,0,2.031,11.168-6.599,13.833,0,0-2.327.846-5.161-.338-2.834-1.185-7.995-4.146-7.995-4.146l7.316-3.752" fill="none" stroke="#231f20" stroke-linecap="round" stroke-linejoin="round" stroke-width=".5"/><line x1="19.126" y1="150.729" x2="19.126" y2="157.308" fill="none" stroke="#231f20" stroke-linecap="round" stroke-linejoin="round" stroke-width=".5"/><path d="M10.537,161.816l11.27-5.544s1.584.426,1.523,2.193l-1.523,5.239-6.884,3.655-2.376-4.264s-.67-1.523-2.01-1.279Z" fill="none" stroke="#231f20" stroke-linecap="round" stroke-linejoin="round" stroke-width=".5"/><path d="M10.537,161.816s-2.376,7.006.914,13.524l1.828-.792s.022-4.461,4.043-5.68c0,0,2.431-.775,2.293,2.512l1.758-.715s1.374-4.614,1.374-9.616" fill="none" stroke="#231f20" stroke-linecap="round" stroke-linejoin="round" stroke-width=".5"/><path d="M11.98,154.279s.71.453-2.866-1.09c0,0-6.167-.207-8.027,8.602v10.962s-.049,4.16,3.964,4.356c0,0,3.377.196,5.53-3.67" fill="none" stroke="#231f20" stroke-linecap="round" stroke-linejoin="round" stroke-width=".5"/><path d="M17.321,168.869l.259,7.262s.587.832,1.223,1.126,5.237,2.496,5.237,2.496c0,0,2.398.881,3.573.734" fill="none" stroke="#231f20" stroke-linecap="round" stroke-linejoin="round" stroke-width=".5"/><path d="M12.098,157.632s-1.468.245-3.279-1.028c0,0-3.866.783-4.453,5.139l-.049,10.424s.245,2.202,2.055,1.517,2.055-1.468,2.055-1.468l1.321-1.811" fill="none" stroke="#231f20" stroke-linecap="round" stroke-linejoin="round" stroke-width=".5"/><path d="M28.864,147.212l14.971-7.486s1.902-.744,1.985,1.323-.041,9.719-.041,9.719c0,0,.165,1.572-1.696,2.812l-8.106,4.012" fill="none" stroke="#231f20" stroke-linecap="round" stroke-linejoin="round" stroke-width=".5"/><path d="M59.947,132.916l-1.212.588c.038-1.694-1.355-1.355-1.355-1.355l-8.922,4.367c-1.506,1.054-1.242,2.786-1.242,2.786l.05,12.045s.4,1.5,1.8.85,8.501-4.151,8.501-4.151c0,0,1.45-.95,1.2-2.75l22.503-11.151v-1.15s3.944-1.388,4.351-2.95l.35-1.3-.05-2.3s-.3-2.4-1.85-4.501v-2.2" fill="none" stroke="#231f20" stroke-linecap="round" stroke-linejoin="round" stroke-width=".5"/><path d="M78.573,135.47v-1.15s3.944-1.388,4.351-2.95l.35-1.3-.05-2.3s-.3-2.4-1.85-4.501v-2.2" fill="none" stroke="#231f20" stroke-linecap="round" stroke-linejoin="round" stroke-width=".5"/><polyline points="60.164 144.652 60.164 131.553 72.989 125.36" fill="none" stroke="#231f20" stroke-linecap="round" stroke-linejoin="round" stroke-width=".5"/><line x1="69.016" y1="140.089" x2="69.016" y2="127.353" fill="none" stroke="#231f20" stroke-linecap="round" stroke-linejoin="round" stroke-width=".5"/><polyline points="153.281 142.691 159.911 139.32 159.945 145.081" fill="none" stroke="#231f20" stroke-linecap="round" stroke-linejoin="round" stroke-width=".5"/><polyline points="152.466 135.685 153.111 135.392 159.853 138.91" fill="none" stroke="#231f20" stroke-linecap="round" stroke-linejoin="round" stroke-width=".5"/><polyline points="160.087 140.258 170.64 145.651 172.223 144.889" fill="none" stroke="#231f20" stroke-linecap="round" stroke-linejoin="round" stroke-width=".5"/><path d="M178.656,143.637c0,.895-1.414,1.62-3.158,1.62s-3.158-.725-3.158-1.62" fill="none" stroke="#231f20" stroke-linecap="round" stroke-linejoin="round" stroke-width=".5"/><path d="M175.498,153.22c1.744,0,3.158-.725,3.158-1.62v-7.963" fill="none" stroke="#231f20" stroke-linecap="round" stroke-linejoin="round" stroke-width=".5"/><line x1="172.34" y1="143.637" x2="172.34" y2="151.6" fill="none" stroke="#231f20" stroke-linecap="round" stroke-linejoin="round" stroke-width=".5"/><polyline points="155.221 95.271 155.221 96.84 161.404 99.952" fill="none" stroke="#231f20" stroke-linecap="round" stroke-linejoin="round" stroke-width=".5"/><path d="M79.128,122.798s4.095,3.752.143,11.142" fill="none" stroke="#231f20" stroke-linecap="round" stroke-linejoin="round" stroke-width=".5"/><line x1="83.799" y1="136.096" x2="83.799" y2="131.853" fill="none" stroke="#231f20" stroke-linecap="round" stroke-linejoin="round" stroke-width=".5"/><polygon points="108.924 138.603 90.71 129.66 90.71 136.956 109.061 146.104 108.924 138.603" fill="none" stroke="#231f20" stroke-linecap="round" stroke-linejoin="round" stroke-width=".5"/><polyline points="109.061 146.104 110.849 145.21 110.712 137.709 92.498 128.766 90.71 129.66" fill="none" stroke="#231f20" stroke-linecap="round" stroke-linejoin="round" stroke-width=".5"/><line x1="90.71" y1="136.956" x2="97.864" y2="133.284" fill="none" stroke="#231f20" stroke-linecap="round" stroke-linejoin="round" stroke-width=".5"/><polyline points="99.793 134.273 99.793 141.333 106.853 137.756" fill="none" stroke="#231f20" stroke-linecap="round" stroke-linejoin="round" stroke-width=".5"/><line x1="108.924" y1="138.603" x2="110.712" y2="137.709" fill="none" stroke="#231f20" stroke-linecap="round" stroke-linejoin="round" stroke-width=".5"/><polygon points="125.752 146.024 112.295 139.256 112.295 147.916 125.889 154.89 125.752 146.024" fill="none" stroke="#231f20" stroke-linecap="round" stroke-linejoin="round" stroke-width=".5"/><polyline points="125.889 154.89 128.148 153.478 128.011 144.612 114.554 137.844 112.295 139.256" fill="none" stroke="#231f20" stroke-linecap="round" stroke-linejoin="round" stroke-width=".5"/><line x1="112.295" y1="147.634" x2="118.601" y2="144.857" fill="none" stroke="#231f20" stroke-linecap="round" stroke-linejoin="round" stroke-width=".5"/><polyline points="118.837 142.833 118.837 151.205 125.19 148.434" fill="none" stroke="#231f20" stroke-linecap="round" stroke-linejoin="round" stroke-width=".5"/><line x1="125.752" y1="146.024" x2="127.54" y2="145.13" fill="none" stroke="#231f20" stroke-linecap="round" stroke-linejoin="round" stroke-width=".5"/><polygon points="136.476 151.451 129.527 147.917 129.527 156.577 136.613 160.317 136.476 151.451" fill="none" stroke="#231f20" stroke-linecap="round" stroke-linejoin="round" stroke-width=".5"/><polyline points="136.613 160.317 138.872 158.905 138.735 150.039 131.786 146.505 129.527 147.917" fill="none" stroke="#231f20" stroke-linecap="round" stroke-linejoin="round" stroke-width=".5"/><line x1="129.561" y1="156.632" x2="135.915" y2="153.861" fill="none" stroke="#231f20" stroke-linecap="round" stroke-linejoin="round" stroke-width=".5"/><line x1="136.476" y1="151.451" x2="138.265" y2="150.557" fill="none" stroke="#231f20" stroke-linecap="round" stroke-linejoin="round" stroke-width=".5"/><path d="M154.566,214.49l19.452-9.582s1.725-.575,1.725,1.15.096,9.582.096,9.582c0,0-.575,2.204-1.821,2.971s-19.74,9.87-19.74,9.87c0,0-1.629,0-1.629-1.821s.17-9.125.17-9.125c0,0,.188-2.452,1.747-3.045Z" fill="none" stroke="#231f20" stroke-linecap="round" stroke-linejoin="round" stroke-width=".5"/><path d="M189.713,197.249l8.624-4.238s1.041-.892,1.115.223,0,11.375,0,11.375c0,0,.149.669-.818,1.264s-8.922,4.461-8.922,4.461c0,0-.892,0-.892-1.115s.074-10.78.074-10.78c0,0,.223-1.115.818-1.19Z" fill="none" stroke="#231f20" stroke-linecap="round" stroke-linejoin="round" stroke-width=".5"/><ellipse cx="180.933" cy="203.694" rx="2.677" ry="1.896" transform="translate(-85.811 259.151) rotate(-60.131)" fill="none" stroke="#231f20" stroke-linecap="round" stroke-linejoin="round" stroke-width=".5"/><ellipse cx="219.008" cy="183.514" rx="2.677" ry="1.896" transform="translate(-49.199 282.038) rotate(-60.131)" fill="none" stroke="#231f20" stroke-linecap="round" stroke-linejoin="round" stroke-width=".5"/><ellipse cx="223.546" cy="188.281" rx="2.677" ry="1.896" transform="translate(-51.054 288.367) rotate(-60.131)" fill="none" stroke="#231f20" stroke-linecap="round" stroke-linejoin="round" stroke-width=".5"/><ellipse cx="219.389" cy="197.784" rx="2.677" ry="1.896" transform="translate(-61.382 289.532) rotate(-60.131)" fill="none" stroke="#231f20" stroke-linecap="round" stroke-linejoin="round" stroke-width=".5"/><ellipse cx="238.68" cy="188.9" rx="2.677" ry="1.896" transform="translate(-43.994 301.801) rotate(-60.131)" fill="none" stroke="#231f20" stroke-linecap="round" stroke-linejoin="round" stroke-width=".5"/><ellipse cx="208.783" cy="195.012" rx="1.818" ry="1.162" transform="translate(-64.302 278.944) rotate(-60.131)" fill="none" stroke="#231f20" stroke-linecap="round" stroke-linejoin="round" stroke-width=".5"/><ellipse cx="180.933" cy="212.719" rx="2.677" ry="1.896" transform="translate(-93.638 263.681) rotate(-60.131)" fill="none" stroke="#231f20" stroke-linecap="round" stroke-linejoin="round" stroke-width=".5"/><line x1="142.284" y1="211.874" x2="148.886" y2="208.698" fill="none" stroke="#231f20" stroke-linecap="round" stroke-linejoin="round" stroke-width=".5"/><path d="M136.332,202.037c2.262-.426,4.14.163,4.14.163,0,0,4.208,1.649,6.345,2.911,2.381,1.407,2.314,3.135,2.314,3.135v31.872s.379,1.278-.992,1.963c-1.619.81-6.415,3.301-6.415,3.301,0,0-1.837.575-4.457-.658-2.62-1.233-12.868-6.626-16.566-23.655,0,0-2.312-13.715,8.09-16.951,0,0,6.703-.616,6.781-2.851,0,0-.617-1.169-7.244,2.683" fill="none" stroke="#231f20" stroke-linecap="round" stroke-linejoin="round" stroke-width=".5"/><path d="M142.044,244.801v-31.36s.231-3.082-1.31-4.238l-7.859-3.544s-2.312-.848-6.01.539" fill="none" stroke="#231f20" stroke-linecap="round" stroke-linejoin="round" stroke-width=".5"/><path d="M130.101,237.359s-6.072-5.141-7.932-17.284c0,0-1.224-11.849,6.806-13.465,0,0,2.893-1.162,11.503,4.136v33.197s-2.199.211-5.413-2.146" fill="none" stroke="#231f20" stroke-linecap="round" stroke-linejoin="round" stroke-width=".5"/><path d="M140.147,218.445l-1.739-.828s-4.802-.497-7.451,6.375c0,0-.662,3.394-.745,5.381s.166,9.024.166,9.024c0,0,1.739,5.05,6.457,2.815,0,0,3.394-2.318,3.643-4.222" fill="none" stroke="#231f20" stroke-linecap="round" stroke-linejoin="round" stroke-width=".5"/><path d="M131.04,206.772s-3.974,7.285-.083,17.22" fill="none" stroke="#231f20" stroke-linecap="round" stroke-linejoin="round" stroke-width=".5"/><path d="M140.293,220.112l-1.671-.943s-4.714.471-6.428,7.414v11.228s-.429,4.885,5.571,2.486" fill="none" stroke="#231f20" stroke-linecap="round" stroke-linejoin="round" stroke-width=".5"/><ellipse cx="51.88" cy="139.121" rx="2.163" ry="1.669" transform="translate(-96.359 130.674) rotate(-66.287)" fill="none" stroke="#231f20" stroke-linecap="round" stroke-linejoin="round" stroke-width=".5"/><ellipse cx="51.88" cy="147.186" rx="2.163" ry="1.669" transform="translate(-103.743 135.495) rotate(-66.287)" fill="none" stroke="#231f20" stroke-linecap="round" stroke-linejoin="round" stroke-width=".5"/><ellipse cx="103.245" cy="115.765" rx="2.896" ry="1.42" fill="none" stroke="#231f20" stroke-linecap="round" stroke-linejoin="round" stroke-width=".5"/><ellipse cx="135.786" cy="132.035" rx="2.896" ry="1.42" fill="none" stroke="#231f20" stroke-linecap="round" stroke-linejoin="round" stroke-width=".5"/><path d="M106.567,133.048v-3.181c.162-1.205-1.057-2.009-1.057-2.009l-11.903-6.059c-1.432-.594-1.289.933-1.289.933v3.243s-.175,1.008.996,1.539l12.285,6.253s.884.547.969-.719Z" fill="none" stroke="#231f20" stroke-linecap="round" stroke-linejoin="round" stroke-width=".5"/><path d="M92.666,121.758l1.291-.676s.569-.338,1.15-.02l11.731,5.932s1.219.804,1.057,2.009v3.181c.058.827-.211.901-.211.901l-1.615.807" fill="none" stroke="#231f20" stroke-linecap="round" stroke-linejoin="round" stroke-width=".5"/><path d="M317.053,121.681l-14.556,7.44s1.881.221,1.632,1.715" fill="none" stroke="#231f20" stroke-linecap="round" stroke-linejoin="round" stroke-width=".5"/><polyline points="303.549 129.785 298.237 132.469 297.185 131.916 277.68 141.765 277.68 144.172" fill="none" stroke="#231f20" stroke-linecap="round" stroke-linejoin="round" stroke-width=".5"/><path d="M277.68,141.765l-19.233-9.333,2.021-3.066,5.017-2.508s.488-.348,1.324,0,2.578,1.254,2.578,1.254" fill="none" stroke="#231f20" stroke-linecap="round" stroke-linejoin="round" stroke-width=".5"/><line x1="133.391" y1="92.553" x2="100.26" y2="109.215" fill="none" stroke="#231f20" stroke-linecap="round" stroke-linejoin="round" stroke-width=".5"/><path d="M381.986,100.282s1.609,1.189-.14,2.798l-.813.403-17.657,8.762s-.7.56-.7,1.399.07,5.037.07,5.037c0,0-.14.979.909.49s17.91-8.885,17.91-8.885c0,0,1.189-.42,1.189.77v2.169s.7.979,1.399-.35c0,0,1.259-1.259-1.049-3.148s-1.819-1.889-1.819-1.889l.07-4.408" fill="none" stroke="#231f20" stroke-linecap="round" stroke-linejoin="round" stroke-width=".5"/><line x1="384.729" y1="111.718" x2="394.432" y2="106.77" fill="none" stroke="#231f20" stroke-linecap="round" stroke-linejoin="round" stroke-width=".5"/><path d="M379.533,104.283l.026,1.784s.306.608-.698,1.112c-.328.164-.64.318-.912.45-.561.273-.95.455-.95.455l.052,2.068,2.197-1.034" fill="none" stroke="#231f20" stroke-linecap="round" stroke-linejoin="round" stroke-width=".5"/><path d="M377.95,107.628l.912.481s.853.388.569,1.577l-.026,1.448" fill="none" stroke="#231f20" stroke-linecap="round" stroke-linejoin="round" stroke-width=".5"/><path d="M318.354,123.951s0-1.676,1.408-2.346,12.132-5.899,12.132-5.899c0,0,.603-.67,2.078.268" fill="none" stroke="#231f20" stroke-linecap="round" stroke-linejoin="round" stroke-width=".5"/><path d="M319.829,124.018s-.067-1.274,1.743-2.145,10.993-5.362,10.993-5.362c0,0,1.274-.603,2.011-.201" fill="none" stroke="#231f20" stroke-linecap="round" stroke-linejoin="round" stroke-width=".5"/><path d="M320.432,130.117l13.942-7.038s1.139-.402.201-1.542l-.047-8.313" fill="none" stroke="#231f20" stroke-linecap="round" stroke-linejoin="round" stroke-width=".5"/><line x1="258.95" y1="132.759" x2="259.01" y2="139.841" fill="none" stroke="#231f20" stroke-linecap="round" stroke-linejoin="round" stroke-width=".5"/><path d="M258.708,138.206s-1.211,1.354.847,2.179c.509.204,1.25.532,2.079.912,1.11.508,2.377,1.108,3.446,1.62" fill="none" stroke="#231f20" stroke-linecap="round" stroke-linejoin="round" stroke-width=".5"/><line x1="186.501" y1="141.661" x2="186.43" y2="145.807" fill="none" stroke="#231f20" stroke-linecap="round" stroke-linejoin="round" stroke-width=".5"/><polyline points="186.423 145.3 185.439 145.843 188.738 147.39" fill="none" stroke="#231f20" stroke-linecap="round" stroke-linejoin="round" stroke-width=".5"/><path d="M154.009,136.671s1.196.683,1.196,1.421c0,1.055-.066,1.223-.066,1.223,0,0,.174,1.049-1.187,1.881-.279.17-.768.426-1.369.725" fill="none" stroke="#231f20" stroke-linecap="round" stroke-linejoin="round" stroke-width=".5"/><path d="M144.494,141.413s.798.28.836.965" fill="none" stroke="#231f20" stroke-linecap="round" stroke-linejoin="round" stroke-width=".5"/><polyline points="159.854 140.77 157.936 141.755 157.986 144.101" fill="none" stroke="#231f20" stroke-linecap="round" stroke-linejoin="round" stroke-width=".5"/><path d="M192.874,131.053v-5.448s-.201-2.359,1.712-2.127c0,0,1.298.555,1.282,3.351" fill="none" stroke="#231f20" stroke-linecap="round" stroke-linejoin="round" stroke-width=".5"/><path d="M199.044,121.426s1.318.201,1.302,2.997" fill="none" stroke="#231f20" stroke-linecap="round" stroke-linejoin="round" stroke-width=".5"/><path d="M204.805,122.372c.017-2.796-1.302-2.997-1.302-2.997v7.684" fill="none" stroke="#231f20" stroke-linecap="round" stroke-linejoin="round" stroke-width=".5"/><line x1="194.079" y1="123.353" x2="205.642" y2="117.87" fill="none" stroke="#231f20" stroke-linecap="round" stroke-linejoin="round" stroke-width=".5"/><line x1="199.044" y1="121.426" x2="199.044" y2="125.428" fill="none" stroke="#231f20" stroke-linecap="round" stroke-linejoin="round" stroke-width=".5"/><path d="M208.859,118.144c.229.445.411,1.128.405,2.177" fill="none" stroke="#231f20" stroke-linecap="round" stroke-linejoin="round" stroke-width=".5"/><line x1="207.961" y1="121.036" x2="207.961" y2="118.327" fill="none" stroke="#231f20" stroke-linecap="round" stroke-linejoin="round" stroke-width=".5"/><path d="M258.942,135.133c-1.477-.133-2.589-.713-2.589-1.407v-1.747" fill="none" stroke="#231f20" stroke-linecap="round" stroke-linejoin="round" stroke-width=".5"/><polyline points="271.454 111.499 271.454 118.715 270.06 118.065 270.06 119.387" fill="none" stroke="#231f20" stroke-linecap="round" stroke-linejoin="round" stroke-width=".5"/><line x1="276.434" y1="110.666" x2="276.446" y2="111.752" fill="none" stroke="#231f20" stroke-linecap="round" stroke-linejoin="round" stroke-width=".5"/><polyline points="272.164 119.221 273.558 119.872 273.558 111.277" fill="none" stroke="#231f20" stroke-linecap="round" stroke-linejoin="round" stroke-width=".5"/><polyline points="274.269 120.378 275.662 121.028 275.662 112.433 278.538 111.044 278.55 112.908" fill="none" stroke="#231f20" stroke-linecap="round" stroke-linejoin="round" stroke-width=".5"/><polyline points="276.373 121.534 277.766 122.185 277.766 113.59 280.642 112.201 280.655 114.122" fill="none" stroke="#231f20" stroke-linecap="round" stroke-linejoin="round" stroke-width=".5"/><polyline points="279.871 121.799 279.871 114.746 282.746 113.357 282.759 115.335" fill="none" stroke="#231f20" stroke-linecap="round" stroke-linejoin="round" stroke-width=".5"/><polyline points="281.975 120.889 281.975 115.903 284.85 114.513 284.863 119.221" fill="none" stroke="#231f20" stroke-linecap="round" stroke-linejoin="round" stroke-width=".5"/><line x1="277.521" y1="111.496" x2="277.521" y2="110.368" fill="none" stroke="#231f20" stroke-linecap="round" stroke-linejoin="round" stroke-width=".5"/><line x1="282.501" y1="109.445" x2="282.513" y2="110.868" fill="none" stroke="#231f20" stroke-linecap="round" stroke-linejoin="round" stroke-width=".5"/><polyline points="279.625 112.679 279.625 110.393 281.144 109.66" fill="none" stroke="#231f20" stroke-linecap="round" stroke-linejoin="round" stroke-width=".5"/><polyline points="281.729 113.843 281.729 111.55 284.605 110.16 284.617 112.081" fill="none" stroke="#231f20" stroke-linecap="round" stroke-linejoin="round" stroke-width=".5"/><polyline points="283.834 115.007 283.834 112.706 286.709 111.317 286.722 113.295" fill="none" stroke="#231f20" stroke-linecap="round" stroke-linejoin="round" stroke-width=".5"/><polyline points="285.938 118.849 285.938 113.862 288.813 112.473 288.826 117.181" fill="none" stroke="#231f20" stroke-linecap="round" stroke-linejoin="round" stroke-width=".5"/><line x1="283.603" y1="110.641" x2="283.603" y2="109.266" fill="none" stroke="#231f20" stroke-linecap="round" stroke-linejoin="round" stroke-width=".5"/><line x1="288.582" y1="108.343" x2="288.595" y2="110.044" fill="none" stroke="#231f20" stroke-linecap="round" stroke-linejoin="round" stroke-width=".5"/><polyline points="285.707 111.806 285.707 109.512 287.728 108.536" fill="none" stroke="#231f20" stroke-linecap="round" stroke-linejoin="round" stroke-width=".5"/><polyline points="287.811 112.97 287.811 110.669 290.687 109.279 290.699 111.257" fill="none" stroke="#231f20" stroke-linecap="round" stroke-linejoin="round" stroke-width=".5"/><polyline points="289.915 116.812 289.915 111.825 292.791 110.436 292.803 115.144" fill="none" stroke="#231f20" stroke-linecap="round" stroke-linejoin="round" stroke-width=".5"/><line x1="292.487" y1="107.628" x2="292.5" y2="108.007" fill="none" stroke="#231f20" stroke-linecap="round" stroke-linejoin="round" stroke-width=".5"/><line x1="289.612" y1="109.768" x2="289.612" y2="108.164" fill="none" stroke="#231f20" stroke-linecap="round" stroke-linejoin="round" stroke-width=".5"/><polyline points="291.716 110.932 291.716 108.631 294.592 107.242 294.604 109.22" fill="none" stroke="#231f20" stroke-linecap="round" stroke-linejoin="round" stroke-width=".5"/><polyline points="293.82 114.774 293.82 109.788 296.696 108.398 296.708 113.106" fill="none" stroke="#231f20" stroke-linecap="round" stroke-linejoin="round" stroke-width=".5"/><line x1="298.302" y1="106.586" x2="298.315" y2="107.377" fill="none" stroke="#231f20" stroke-linecap="round" stroke-linejoin="round" stroke-width=".5"/><line x1="295.427" y1="108.809" x2="295.427" y2="107.122" fill="none" stroke="#231f20" stroke-linecap="round" stroke-linejoin="round" stroke-width=".5"/><polyline points="297.531 112.931 297.531 107.944 298.631 107.413" fill="none" stroke="#231f20" stroke-linecap="round" stroke-linejoin="round" stroke-width=".5"/><polyline points="266.575 123.503 267.015 123.278 267.801 123.671 272.238 121.373" fill="none" stroke="#231f20" stroke-linecap="round" stroke-linejoin="round" stroke-width=".5"/><line x1="269.372" y1="127.115" x2="267.139" y2="126.039" fill="none" stroke="#231f20" stroke-linecap="round" stroke-linejoin="round" stroke-width=".5"/><line x1="272.756" y1="125.484" x2="268.647" y2="123.309" fill="none" stroke="#231f20" stroke-linecap="round" stroke-linejoin="round" stroke-width=".5"/><polyline points="270.037 122.402 270.037 119.387 277.559 123.127" fill="none" stroke="#231f20" stroke-linecap="round" stroke-linejoin="round" stroke-width=".5"/><ellipse cx="314.935" cy="141.749" rx="2.565" ry="1.938" transform="translate(89.112 403.054) rotate(-73.398)" fill="none" stroke="#231f20" stroke-linecap="round" stroke-linejoin="round" stroke-width=".5"/><ellipse cx="344.545" cy="126.658" rx="2.565" ry="1.938" transform="translate(124.724 420.652) rotate(-73.398)" fill="none" stroke="#231f20" stroke-linecap="round" stroke-linejoin="round" stroke-width=".5"/><path d="M321.713,128.457l-.288-4.57,1.087-.529c.412-.2.683-.308.811-.324.196-.025.367.046.511.213.144.166.228.432.251.795.018.28-.006.535-.068.762-.062.228-.147.425-.256.589-.108.165-.222.296-.338.389-.159.123-.392.258-.698.407l-.441.215.108,1.724-.678.33ZM322.151,124.33l.082,1.296.37-.18c.268-.13.444-.24.531-.331.087-.091.153-.201.197-.328.045-.127.063-.258.055-.393-.011-.167-.056-.286-.134-.359-.078-.074-.173-.098-.285-.07-.082.018-.245.087-.489.206l-.327.159Z" fill="#231f20" stroke-width="0"/><path d="M324.312,122.481l.678-.329.155,2.476c.025.393.05.643.074.751.04.173.119.289.235.35.116.061.269.045.458-.047.192-.094.333-.218.425-.373.091-.155.142-.314.15-.48.011-.166.005-.428-.019-.79l-.159-2.529.678-.33.151,2.401c.034.549.04.945.019,1.189-.023.245-.079.469-.168.672-.088.204-.211.393-.37.566-.159.171-.372.322-.637.452-.32.156-.567.224-.738.205-.172-.021-.312-.088-.417-.203-.105-.113-.181-.252-.222-.414-.062-.24-.108-.615-.14-1.127l-.154-2.438Z" fill="#231f20" stroke-width="0"/><path d="M327.49,124.112l.653-.406c.059.281.152.464.282.545.131.083.299.073.505-.027.218-.106.379-.249.481-.429s.148-.354.138-.522c-.007-.108-.036-.188-.087-.241-.052-.054-.137-.08-.256-.08-.082.002-.267.022-.556.064-.37.054-.634.028-.792-.081-.222-.15-.345-.407-.367-.769-.015-.232.02-.475.104-.723.085-.25.215-.474.391-.667.176-.194.393-.355.649-.48.422-.205.746-.233.976-.086.228.15.361.43.398.844l-.676.37c-.043-.221-.115-.359-.218-.416-.103-.056-.247-.039-.438.055-.197.096-.348.227-.452.391-.067.105-.098.218-.09.336.007.108.047.185.118.229.092.057.306.056.642.002.336-.054.587-.063.752-.028.165.038.299.133.4.285.101.153.161.375.18.663.017.263-.022.532-.114.813-.093.281-.232.524-.421.73s-.429.38-.719.521c-.425.206-.759.232-1.003.075-.244-.156-.404-.479-.48-.97Z" fill="#231f20" stroke-width="0"/><path d="M330.648,124.107l-.287-4.57.677-.329.113,1.799,1.327-.646-.113-1.799.678-.33.287,4.57-.677.33-.126-1.999-1.327.646.125,1.999-.677.329Z" fill="#231f20" stroke-width="0"/><path d="M189.286,191.321l-44.881-22.484s-.951.086-.951-2.94v-18.584s.19-2.174,1.989-1.738l4.41,2.162v-1.405l57.83,28.907s1.322.725,1.322,2.046v2.515" fill="none" stroke="#231f20" stroke-linecap="round" stroke-linejoin="round" stroke-width=".5"/><path d="M199.503,184.356l-6.714-3.319s-.686-.416-.617,1.158c.083,1.928,0,7.563,0,7.563" fill="none" stroke="#231f20" stroke-linecap="round" stroke-linejoin="round" stroke-width=".5"/><polygon points="189.746 190.043 177.826 184.021 177.826 173.534 189.746 179.556 189.746 190.043" fill="none" stroke="#231f20" stroke-linecap="round" stroke-linejoin="round" stroke-width=".5"/><polygon points="159.72 171.478 147.8 165.455 147.8 157.775 159.72 163.798 159.72 171.478" fill="none" stroke="#231f20" stroke-linecap="round" stroke-linejoin="round" stroke-width=".5"/><polygon points="173.644 178.984 164.131 174.222 164.131 166.886 173.644 171.648 173.644 178.984" fill="none" stroke="#231f20" stroke-linecap="round" stroke-linejoin="round" stroke-width=".5"/><polyline points="181.435 183 179.293 181.913 179.293 175.756 188.162 180.258 188.162 186.415 185.977 185.306" fill="none" stroke="#231f20" stroke-linecap="round" stroke-linejoin="round" stroke-width=".5"/><polyline points="185.992 185.276 185.992 186.578 181.436 184.327 181.436 182.985" fill="none" stroke="#231f20" stroke-linecap="round" stroke-linejoin="round" stroke-width=".5"/><polygon points="158.51 168.775 149.928 164.58 149.928 160.27 158.51 164.465 158.51 168.775" fill="none" stroke="#231f20" stroke-linecap="round" stroke-linejoin="round" stroke-width=".5"/><path d="M166.712,169.554l4.601,2.301s1.277.651,1.096,1.917-.219,1.424-1.205,1.315-4.437-2.082-4.437-2.082c0,0-1.096-1.096-1.15-2.246-.055-1.15,1.096-1.205,1.096-1.205Z" fill="none" stroke="#231f20" stroke-linecap="round" stroke-linejoin="round" stroke-width=".5"/><polyline points="201.943 183.488 166.278 165.787 166.278 158.453 202.746 176.553 202.746 183.091" fill="none" stroke="#231f20" stroke-linecap="round" stroke-linejoin="round" stroke-width=".5"/><polyline points="166.374 158.342 168.027 157.579 204.496 175.678 204.496 181.986" fill="none" stroke="#231f20" stroke-linecap="round" stroke-linejoin="round" stroke-width=".5"/><line x1="166.278" y1="165.787" x2="173.363" y2="162.181" fill="none" stroke="#231f20" stroke-linecap="round" stroke-linejoin="round" stroke-width=".5"/><polyline points="175.283 163.018 175.283 170.253 182.075 166.611" fill="none" stroke="#231f20" stroke-linecap="round" stroke-linejoin="round" stroke-width=".5"/><polyline points="184.486 167.546 184.486 174.732 191.476 171.139" fill="none" stroke="#231f20" stroke-linecap="round" stroke-linejoin="round" stroke-width=".5"/><polyline points="193.543 172.025 193.543 179.113 200.526 175.634" fill="none" stroke="#231f20" stroke-linecap="round" stroke-linejoin="round" stroke-width=".5"/><line x1="202.746" y1="176.553" x2="204.496" y2="175.678" fill="none" stroke="#231f20" stroke-linecap="round" stroke-linejoin="round" stroke-width=".5"/><path d="M214.525,173.249s.124-1.059-1.014-1.476l-4.168,2.331-58.845-29.292c-2.122.424-2.122,2.122-2.122,2.122" fill="none" stroke="#231f20" stroke-linecap="round" stroke-linejoin="round" stroke-width=".5"/><path d="M153.54,142.972s-2.573-1.244-3.721-1.851c-.859-.454-1.698-.071-1.698-.071,0,0-1.514.861-2.858,1.427-.336.141-.606.302-.832.449-.812.525-.865,1.441-.865,1.441v2.042" fill="none" stroke="#231f20" stroke-linecap="round" stroke-linejoin="round" stroke-width=".5"/><line x1="148.871" y1="145.378" x2="144.366" y2="143.08" fill="none" stroke="#231f20" stroke-linecap="round" stroke-linejoin="round" stroke-width=".5"/><path d="M150.733,144.811l3.398-1.699s.673-.256,1.41.064c.299.13,9.834,4.918,21.052,10.559,16.406,8.249,37.117,18.177,37.117,18.177l19.552-10.489" fill="none" stroke="#231f20" stroke-linecap="round" stroke-linejoin="round" stroke-width=".5"/><polyline points="176.594 153.735 196.901 143.229 233.263 161.423 233.39 165.883" fill="none" stroke="#231f20" stroke-linecap="round" stroke-linejoin="round" stroke-width=".5"/><path d="M237.681,163.804v-4.87l12.022-5.986s1.358-.704,2.515-.101,3.571,1.859,3.571,1.859" fill="none" stroke="#231f20" stroke-linecap="round" stroke-linejoin="round" stroke-width=".5"/><ellipse cx="175.47" cy="134.28" rx="4.996" ry="2.624" fill="none" stroke="#231f20" stroke-linecap="round" stroke-linejoin="round" stroke-width=".5"/><path d="M180.466,139.23c0,1.449-2.237,2.624-4.996,2.624s-4.996-1.175-4.996-2.624" fill="none" stroke="#231f20" stroke-linecap="round" stroke-linejoin="round" stroke-width=".5"/><path d="M170.474,134.28v6.746c0,1.449,2.237,2.624,4.996,2.624s4.996-1.175,4.996-2.624v-6.409" fill="none" stroke="#231f20" stroke-linecap="round" stroke-linejoin="round" stroke-width=".5"/><line x1="173.661" y1="133.073" x2="177.001" y2="134.916" fill="none" stroke="#231f20" stroke-linecap="round" stroke-linejoin="round" stroke-width=".5"/><line x1="173.315" y1="135.032" x2="177.174" y2="132.958" fill="none" stroke="#231f20" stroke-linecap="round" stroke-linejoin="round" stroke-width=".5"/><ellipse cx="259.713" cy="116.076" rx="4.996" ry="2.624" fill="none" stroke="#231f20" stroke-linecap="round" stroke-linejoin="round" stroke-width=".5"/><path d="M264.709,121.025c0,1.449-2.237,2.624-4.996,2.624s-4.996-1.175-4.996-2.624" fill="none" stroke="#231f20" stroke-linecap="round" stroke-linejoin="round" stroke-width=".5"/><path d="M254.717,116.076v6.746c0,1.449,2.237,2.624,4.996,2.624s4.996-1.175,4.996-2.624v-6.409" fill="none" stroke="#231f20" stroke-linecap="round" stroke-linejoin="round" stroke-width=".5"/><line x1="257.904" y1="114.869" x2="261.244" y2="116.712" fill="none" stroke="#231f20" stroke-linecap="round" stroke-linejoin="round" stroke-width=".5"/><line x1="257.558" y1="116.827" x2="261.417" y2="114.753" fill="none" stroke="#231f20" stroke-linecap="round" stroke-linejoin="round" stroke-width=".5"/><ellipse cx="263.405" cy="145.499" rx="4.996" ry="2.624" fill="none" stroke="#231f20" stroke-linecap="round" stroke-linejoin="round" stroke-width=".5"/><line x1="268.401" y1="148.257" x2="268.401" y2="145.836" fill="none" stroke="#231f20" stroke-linecap="round" stroke-linejoin="round" stroke-width=".5"/><line x1="258.409" y1="145.499" x2="258.409" y2="153.14" fill="none" stroke="#231f20" stroke-linecap="round" stroke-linejoin="round" stroke-width=".5"/><line x1="261.596" y1="144.292" x2="264.936" y2="146.135" fill="none" stroke="#231f20" stroke-linecap="round" stroke-linejoin="round" stroke-width=".5"/><line x1="261.25" y1="146.25" x2="265.109" y2="144.177" fill="none" stroke="#231f20" stroke-linecap="round" stroke-linejoin="round" stroke-width=".5"/><path d="M250.189,115.823c2.547,1.293,4.421,2.245,4.421,2.245" fill="none" stroke="#231f20" stroke-linecap="round" stroke-linejoin="round" stroke-width=".5"/><line x1="180.959" y1="134.923" x2="192.349" y2="129.332" fill="none" stroke="#231f20" stroke-linecap="round" stroke-linejoin="round" stroke-width=".5"/><ellipse cx="189.123" cy="134.204" rx="2.819" ry="1.461" fill="none" stroke="#231f20" stroke-linecap="round" stroke-linejoin="round" stroke-width=".5"/><path d="M191.048,136.432c.118.11.192.238.212.38.078.57-.75,1.154-1.85,1.306s-2.055-.188-2.134-.758c-.037-.266.124-.535.418-.762" fill="none" stroke="#231f20" stroke-linecap="round" stroke-linejoin="round" stroke-width=".5"/><path d="M190.772,137.808c.276.138.455.333.487.566.078.57-.75,1.154-1.85,1.306s-2.055-.188-2.134-.758c-.047-.34.23-.686.694-.941" fill="none" stroke="#231f20" stroke-linecap="round" stroke-linejoin="round" stroke-width=".5"/><path d="M186.304,134.365v1.065c0,.807,1.262,1.461,2.819,1.461s2.819-.654,2.819-1.461v-1.226" fill="none" stroke="#231f20" stroke-linecap="round" stroke-linejoin="round" stroke-width=".5"/><path d="M248.013,134.259l19.073-9.572s.265-.682-.379-1.023c-.498-.264-1.743-.834-1.743-.834" fill="none" stroke="#231f20" stroke-linecap="round" stroke-linejoin="round" stroke-width=".5"/><ellipse cx="245.942" cy="135.473" rx="2.658" ry="1.165" fill="none" stroke="#231f20" stroke-linecap="round" stroke-linejoin="round" stroke-width=".5"/><path d="M247.56,140.131c.21.137.333.301.333.479,0,.473-.874.856-1.952.856" fill="none" stroke="#231f20" stroke-linecap="round" stroke-linejoin="round" stroke-width=".5"/><path d="M245.942,138.111c1.468,0,2.658-.522,2.658-1.165v-1.472" fill="none" stroke="#231f20" stroke-linecap="round" stroke-linejoin="round" stroke-width=".5"/><path d="M247.631,137.846c.165.101.267.228.286.374.06.468-.755.958-1.822,1.096" fill="none" stroke="#231f20" stroke-linecap="round" stroke-linejoin="round" stroke-width=".5"/><path d="M247.427,138.936c.283.111.465.274.49.474.06.468-.755.958-1.822,1.096" fill="none" stroke="#231f20" stroke-linecap="round" stroke-linejoin="round" stroke-width=".5"/><line x1="248.969" y1="135.824" x2="259.282" y2="130.414" fill="none" stroke="#231f20" stroke-linecap="round" stroke-linejoin="round" stroke-width=".5"/><line x1="267.204" y1="124.672" x2="267.204" y2="126.199" fill="none" stroke="#231f20" stroke-linecap="round" stroke-linejoin="round" stroke-width=".5"/><polyline points="222.862 155.78 250.886 141.743 250.886 140.481 247.907 138.966" fill="none" stroke="#231f20" stroke-linecap="round" stroke-linejoin="round" stroke-width=".5"/><line x1="246.089" y1="142.854" x2="250.886" y2="140.481" fill="none" stroke="#231f20" stroke-linecap="round" stroke-linejoin="round" stroke-width=".5"/><polyline points="215.15 152.366 215.15 148.719 218.503 147.099 218.517 150.351" fill="none" stroke="#231f20" stroke-linecap="round" stroke-linejoin="round" stroke-width=".5"/><polyline points="211.778 150.816 211.778 147.168 215.13 145.548 215.145 148.8" fill="none" stroke="#231f20" stroke-linecap="round" stroke-linejoin="round" stroke-width=".5"/><polyline points="208.289 149.033 208.289 145.385 211.641 143.765 211.656 147.017" fill="none" stroke="#231f20" stroke-linecap="round" stroke-linejoin="round" stroke-width=".5"/><polyline points="204.839 147.249 204.839 143.602 208.191 141.982 208.206 145.234" fill="none" stroke="#231f20" stroke-linecap="round" stroke-linejoin="round" stroke-width=".5"/><polyline points="201.427 145.583 201.427 141.935 204.78 140.315 204.795 143.567" fill="none" stroke="#231f20" stroke-linecap="round" stroke-linejoin="round" stroke-width=".5"/><polyline points="197.861 143.799 197.861 140.152 201.214 138.532 201.228 141.784" fill="none" stroke="#231f20" stroke-linecap="round" stroke-linejoin="round" stroke-width=".5"/><polyline points="194.488 144.148 194.488 138.446 197.841 136.826 197.856 140.078" fill="none" stroke="#231f20" stroke-linecap="round" stroke-linejoin="round" stroke-width=".5"/><polyline points="194.636 138.195 194.621 134.943 191.269 136.563 191.269 142.265 190.264 141.727" fill="none" stroke="#231f20" stroke-linecap="round" stroke-linejoin="round" stroke-width=".5"/><polyline points="218.534 154.044 218.534 150.534 221.971 148.874 221.986 155.515" fill="none" stroke="#231f20" stroke-linecap="round" stroke-linejoin="round" stroke-width=".5"/><polyline points="226.754 152.483 226.739 146.47 223.302 148.131 223.302 153.568 224.041 153.917 222.258 154.847" fill="none" stroke="#231f20" stroke-linecap="round" stroke-linejoin="round" stroke-width=".5"/><polyline points="223.382 147.908 223.367 144.687 219.929 146.348 219.929 149.769" fill="none" stroke="#231f20" stroke-linecap="round" stroke-linejoin="round" stroke-width=".5"/><polyline points="228.15 145.544 228.135 142.322 224.698 143.983 224.698 147.405" fill="none" stroke="#231f20" stroke-linecap="round" stroke-linejoin="round" stroke-width=".5"/><polyline points="232.918 143.102 232.903 139.88 229.466 141.541 229.466 144.962" fill="none" stroke="#231f20" stroke-linecap="round" stroke-linejoin="round" stroke-width=".5"/><polyline points="237.686 140.776 237.671 137.554 234.234 139.215 234.234 142.636" fill="none" stroke="#231f20" stroke-linecap="round" stroke-linejoin="round" stroke-width=".5"/><polyline points="242.454 138.411 242.439 135.189 239.002 136.85 239.002 140.272" fill="none" stroke="#231f20" stroke-linecap="round" stroke-linejoin="round" stroke-width=".5"/><polyline points="219.919 146.208 219.904 142.986 216.467 144.647 216.467 148.068" fill="none" stroke="#231f20" stroke-linecap="round" stroke-linejoin="round" stroke-width=".5"/><polyline points="224.657 143.838 224.643 140.617 221.205 142.277 221.205 145.699" fill="none" stroke="#231f20" stroke-linecap="round" stroke-linejoin="round" stroke-width=".5"/><polyline points="229.516 141.401 229.501 138.179 226.064 139.84 226.064 143.261" fill="none" stroke="#231f20" stroke-linecap="round" stroke-linejoin="round" stroke-width=".5"/><polyline points="234.284 139.075 234.269 135.853 230.832 137.514 230.832 140.935" fill="none" stroke="#231f20" stroke-linecap="round" stroke-linejoin="round" stroke-width=".5"/><polyline points="239.052 136.71 239.037 133.489 235.6 135.149 235.6 138.571" fill="none" stroke="#231f20" stroke-linecap="round" stroke-linejoin="round" stroke-width=".5"/><polyline points="243.851 134.28 243.836 131.059 240.399 132.719 240.399 136.141" fill="none" stroke="#231f20" stroke-linecap="round" stroke-linejoin="round" stroke-width=".5"/><polyline points="231.561 150.118 231.546 144.105 228.109 145.766 228.109 151.204 228.848 151.552 227.064 152.483" fill="none" stroke="#231f20" stroke-linecap="round" stroke-linejoin="round" stroke-width=".5"/><polyline points="236.368 147.676 236.353 141.663 232.916 143.324 232.916 148.761 233.655 149.11 231.871 150.041" fill="none" stroke="#231f20" stroke-linecap="round" stroke-linejoin="round" stroke-width=".5"/><polyline points="241.136 145.272 241.121 139.26 237.684 140.921 237.684 146.358 238.423 146.707 236.639 147.637" fill="none" stroke="#231f20" stroke-linecap="round" stroke-linejoin="round" stroke-width=".5"/><polyline points="245.866 142.947 245.851 136.934 242.413 138.595 242.413 144.032 243.152 144.381 241.369 145.311" fill="none" stroke="#231f20" stroke-linecap="round" stroke-linejoin="round" stroke-width=".5"/><polyline points="216.565 144.332 216.55 141.11 213.113 142.771 213.113 146.192" fill="none" stroke="#231f20" stroke-linecap="round" stroke-linejoin="round" stroke-width=".5"/><polyline points="221.303 141.962 221.288 138.741 217.851 140.402 217.851 143.823" fill="none" stroke="#231f20" stroke-linecap="round" stroke-linejoin="round" stroke-width=".5"/><polyline points="226.162 139.525 226.147 136.303 222.71 137.964 222.71 141.385" fill="none" stroke="#231f20" stroke-linecap="round" stroke-linejoin="round" stroke-width=".5"/><polyline points="230.93 137.199 230.915 133.977 227.478 135.638 227.478 139.059" fill="none" stroke="#231f20" stroke-linecap="round" stroke-linejoin="round" stroke-width=".5"/><polyline points="235.698 134.834 235.683 131.613 232.246 133.273 232.246 136.695" fill="none" stroke="#231f20" stroke-linecap="round" stroke-linejoin="round" stroke-width=".5"/><polyline points="240.497 132.404 240.482 129.183 237.045 130.843 237.045 134.265" fill="none" stroke="#231f20" stroke-linecap="round" stroke-linejoin="round" stroke-width=".5"/><polyline points="213.041 142.631 213.026 139.409 209.589 141.07 209.589 144.491" fill="none" stroke="#231f20" stroke-linecap="round" stroke-linejoin="round" stroke-width=".5"/><polyline points="217.78 140.261 217.765 137.04 214.328 138.701 214.328 142.122" fill="none" stroke="#231f20" stroke-linecap="round" stroke-linejoin="round" stroke-width=".5"/><polyline points="222.638 137.824 222.623 134.602 219.186 136.263 219.186 139.684" fill="none" stroke="#231f20" stroke-linecap="round" stroke-linejoin="round" stroke-width=".5"/><polyline points="227.407 135.498 227.392 132.276 223.954 133.937 223.954 137.359" fill="none" stroke="#231f20" stroke-linecap="round" stroke-linejoin="round" stroke-width=".5"/><polyline points="232.175 133.133 232.16 129.912 228.722 131.572 228.722 134.994" fill="none" stroke="#231f20" stroke-linecap="round" stroke-linejoin="round" stroke-width=".5"/><polyline points="236.974 130.703 236.959 127.482 233.522 129.142 233.522 132.564" fill="none" stroke="#231f20" stroke-linecap="round" stroke-linejoin="round" stroke-width=".5"/><polyline points="209.579 141.173 209.564 137.951 206.127 139.612 206.127 143.033" fill="none" stroke="#231f20" stroke-linecap="round" stroke-linejoin="round" stroke-width=".5"/><polyline points="214.317 138.803 214.302 135.582 210.865 137.243 210.865 140.664" fill="none" stroke="#231f20" stroke-linecap="round" stroke-linejoin="round" stroke-width=".5"/><polyline points="219.176 136.366 219.161 133.144 215.723 134.805 215.723 138.226" fill="none" stroke="#231f20" stroke-linecap="round" stroke-linejoin="round" stroke-width=".5"/><polyline points="223.944 134.04 223.929 130.818 220.492 132.479 220.492 135.901" fill="none" stroke="#231f20" stroke-linecap="round" stroke-linejoin="round" stroke-width=".5"/><polyline points="228.712 131.675 228.697 128.454 225.26 130.114 225.26 133.536" fill="none" stroke="#231f20" stroke-linecap="round" stroke-linejoin="round" stroke-width=".5"/><polyline points="233.511 129.245 233.496 126.024 230.059 127.684 230.059 131.106" fill="none" stroke="#231f20" stroke-linecap="round" stroke-linejoin="round" stroke-width=".5"/><polyline points="206.177 139.289 206.162 136.068 202.725 137.729 202.725 141.15" fill="none" stroke="#231f20" stroke-linecap="round" stroke-linejoin="round" stroke-width=".5"/><polyline points="210.915 136.92 210.9 133.699 207.463 135.359 207.463 138.781" fill="none" stroke="#231f20" stroke-linecap="round" stroke-linejoin="round" stroke-width=".5"/><polyline points="215.774 134.482 215.759 131.261 212.322 132.922 212.322 136.343" fill="none" stroke="#231f20" stroke-linecap="round" stroke-linejoin="round" stroke-width=".5"/><polyline points="220.542 132.157 220.527 128.935 217.09 130.596 217.09 134.017" fill="none" stroke="#231f20" stroke-linecap="round" stroke-linejoin="round" stroke-width=".5"/><polyline points="225.31 129.792 225.295 126.57 221.858 128.231 221.858 131.653" fill="none" stroke="#231f20" stroke-linecap="round" stroke-linejoin="round" stroke-width=".5"/><polyline points="230.109 127.362 230.094 124.14 226.657 125.801 226.657 129.223" fill="none" stroke="#231f20" stroke-linecap="round" stroke-linejoin="round" stroke-width=".5"/><polyline points="202.653 137.588 202.638 134.367 199.201 136.028 199.201 139.449" fill="none" stroke="#231f20" stroke-linecap="round" stroke-linejoin="round" stroke-width=".5"/><polyline points="207.392 135.219 207.377 131.998 203.94 133.658 203.94 137.08" fill="none" stroke="#231f20" stroke-linecap="round" stroke-linejoin="round" stroke-width=".5"/><polyline points="212.25 132.782 212.235 129.56 208.798 131.221 208.798 134.642" fill="none" stroke="#231f20" stroke-linecap="round" stroke-linejoin="round" stroke-width=".5"/><polyline points="217.018 130.456 217.003 127.234 213.566 128.895 213.566 132.316" fill="none" stroke="#231f20" stroke-linecap="round" stroke-linejoin="round" stroke-width=".5"/><polyline points="221.787 128.091 221.772 124.869 218.334 126.53 218.334 129.952" fill="none" stroke="#231f20" stroke-linecap="round" stroke-linejoin="round" stroke-width=".5"/><polyline points="226.586 125.661 226.571 122.439 223.133 124.1 223.133 127.522" fill="none" stroke="#231f20" stroke-linecap="round" stroke-linejoin="round" stroke-width=".5"/><polyline points="199.312 135.887 199.297 132.666 195.86 134.327 195.86 137.748" fill="none" stroke="#231f20" stroke-linecap="round" stroke-linejoin="round" stroke-width=".5"/><polyline points="204.051 133.518 204.036 130.297 200.598 131.957 200.598 135.379" fill="none" stroke="#231f20" stroke-linecap="round" stroke-linejoin="round" stroke-width=".5"/><polyline points="208.909 131.081 208.894 127.859 205.457 129.52 205.457 132.941" fill="none" stroke="#231f20" stroke-linecap="round" stroke-linejoin="round" stroke-width=".5"/><polyline points="213.677 128.755 213.662 125.533 210.225 127.194 210.225 130.615" fill="none" stroke="#231f20" stroke-linecap="round" stroke-linejoin="round" stroke-width=".5"/><polyline points="218.445 126.39 218.43 123.168 214.993 124.829 214.993 128.251" fill="none" stroke="#231f20" stroke-linecap="round" stroke-linejoin="round" stroke-width=".5"/><polyline points="223.245 123.96 223.23 120.738 219.792 122.399 219.792 125.821" fill="none" stroke="#231f20" stroke-linecap="round" stroke-linejoin="round" stroke-width=".5"/><polyline points="195.91 134.004 195.895 130.783 192.458 132.443 192.458 135.865" fill="none" stroke="#231f20" stroke-linecap="round" stroke-linejoin="round" stroke-width=".5"/><polyline points="200.649 131.635 200.634 128.413 197.196 130.074 197.196 133.496" fill="none" stroke="#231f20" stroke-linecap="round" stroke-linejoin="round" stroke-width=".5"/><polyline points="205.507 129.197 205.492 125.976 202.055 127.637 202.055 131.058" fill="none" stroke="#231f20" stroke-linecap="round" stroke-linejoin="round" stroke-width=".5"/><polyline points="210.275 126.871 210.26 123.65 206.823 125.311 206.823 128.732" fill="none" stroke="#231f20" stroke-linecap="round" stroke-linejoin="round" stroke-width=".5"/><polyline points="215.043 124.507 215.028 121.285 211.591 122.946 211.591 126.367" fill="none" stroke="#231f20" stroke-linecap="round" stroke-linejoin="round" stroke-width=".5"/><line x1="216.39" y1="120.516" x2="216.39" y2="123.938" fill="none" stroke="#231f20" stroke-linecap="round" stroke-linejoin="round" stroke-width=".5"/><line x1="219.843" y1="122.077" x2="219.838" y2="121.145" fill="none" stroke="#231f20" stroke-linecap="round" stroke-linejoin="round" stroke-width=".5"/><polyline points="197.159 129.868 197.144 126.646 193.707 128.307 193.707 131.728" fill="none" stroke="#231f20" stroke-linecap="round" stroke-linejoin="round" stroke-width=".5"/><polyline points="202.018 127.43 202.003 124.208 198.566 125.869 198.566 129.291" fill="none" stroke="#231f20" stroke-linecap="round" stroke-linejoin="round" stroke-width=".5"/><polyline points="206.786 125.104 206.771 121.883 203.334 123.543 203.334 126.965" fill="none" stroke="#231f20" stroke-linecap="round" stroke-linejoin="round" stroke-width=".5"/><polyline points="211.554 122.739 211.539 119.518 208.102 121.179 208.102 124.6" fill="none" stroke="#231f20" stroke-linecap="round" stroke-linejoin="round" stroke-width=".5"/><line x1="212.901" y1="118.749" x2="212.901" y2="122.17" fill="none" stroke="#231f20" stroke-linecap="round" stroke-linejoin="round" stroke-width=".5"/><polyline points="193.536 144.84 183.793 140.263 183.793 138.858 186.829 137.363" fill="none" stroke="#231f20" stroke-linecap="round" stroke-linejoin="round" stroke-width=".5"/><polyline points="184.334 139.083 189.022 141.291 191.272 140.132" fill="none" stroke="#231f20" stroke-linecap="round" stroke-linejoin="round" stroke-width=".5"/><line x1="249.634" y1="142.67" x2="258.14" y2="146.923" fill="none" stroke="#231f20" stroke-linecap="round" stroke-linejoin="round" stroke-width=".5"/><ellipse cx="155.242" cy="145.066" rx="1.491" ry=".681" fill="none" stroke="#231f20" stroke-linecap="round" stroke-linejoin="round" stroke-width=".547"/><ellipse cx="209.279" cy="171.853" rx="1.39" ry=".635" fill="none" stroke="#231f20" stroke-linecap="round" stroke-linejoin="round" stroke-width=".51"/><line x1="210.009" y1="179.13" x2="209.743" y2="174.16" fill="none" stroke="#231f20" stroke-linecap="round" stroke-linejoin="round" stroke-width=".551"/><path d="M270.812,218.777l3.2-1.98s4.89-3.172,9.516,1.057l8.062,5.683s3.436,2.643,8.723-.661l50.751-25.375s3.568-1.454,3.701-6.608-.132-12.035-.132-12.035" fill="none" stroke="#231f20" stroke-miterlimit="10" stroke-width=".5"/><path d="M276.957,217.918s3.445,3.568.738,7.013l9.474,6.767s3.937,2.338,8.367.492l4.43-1.846s-.861-5.537-3.814-5.906" fill="none" stroke="#231f20" stroke-linecap="round" stroke-linejoin="round" stroke-width=".5"/><path d="M348.375,198.716s3.49,1.842,3.49,5.526l-.097,15.997s-1.454,15.512-14.736,24.819l-20.844,10.858s-8.725,4.363-13.476-1.745c0,0-3.199-3.781-3.005-10.47.194-6.689.26-13.355.26-13.355" fill="none" stroke="#231f20" stroke-linecap="round" stroke-linejoin="round" stroke-width=".5"/><line x1="306.396" y1="225.571" x2="345.951" y2="205.793" fill="none" stroke="#231f20" stroke-linecap="round" stroke-linejoin="round" stroke-width=".5"/><path d="M304.457,229.933l.194,14.348s.485,9.21,10.374,7.271l23.268-11.828s6.98-5.041,9.404-16.19l.097-15.415" fill="none" stroke="#231f20" stroke-linecap="round" stroke-linejoin="round" stroke-width=".5"/><path d="M300.188,229.475s1.31-.252,2.722.554c0,0,2.067-.302,3.175-1.159l-.202-4.435s-1.008-2.319-3.125-2.772" fill="none" stroke="#231f20" stroke-linecap="round" stroke-linejoin="round" stroke-width=".5"/><path d="M342.98,201.552s2.571.302,3.226,2.571l.403,4.536,1.714-.806s1.31-5.998-3.024-7.409" fill="none" stroke="#231f20" stroke-linecap="round" stroke-linejoin="round" stroke-width=".5"/><polyline points="100.986 48.205 84.76 51.522 90.567 54.203" fill="none" stroke="#231f20" stroke-linecap="round" stroke-linejoin="round" stroke-width=".5"/><path d="M394.789,86.831l-1.113,5.686-5.925,3.77-86.85,15.081s-2.289.673-2.289-1.885l.404-3.097-50.359,9.022-1.347,5.386-9.829,1.616s-1.616,0-2.289-1.616-2.02-2.424-2.962-2.154-8.483,1.616-8.483,1.616l-.223-2.721,171.266-30.776L261.408,19.67l-152.498,27.126" fill="none" stroke="#231f20" stroke-linecap="round" stroke-linejoin="round" stroke-width=".5"/><path d="M178.465,53.078l98.87-17.175s2.266-.888,5.664.778c3.398,1.666,71.289,35.554,71.289,35.554,0,0,2.771,1.144.748,2.024l-100.482,17.615s-3.061.624-6.916-1.361c-3.855-1.984-70.463-35.43-70.463-35.43,0,0-3.032-1.574,1.29-2.006Z" fill="none" stroke="#231f20" stroke-linecap="round" stroke-linejoin="round" stroke-width=".5"/><path d="M231.414,113.497s1.508-3.392,3.92-2.638l2.337,1.508-7.588,1.63L100.949,49.243" fill="none" stroke="#231f20" stroke-linecap="round" stroke-linejoin="round" stroke-width=".5"/><path d="M102.219,49.05s2.111-3.769,4.447-2.638,127.688,64.07,127.688,64.07" fill="none" stroke="#231f20" stroke-linecap="round" stroke-linejoin="round" stroke-width=".5"/><polygon points="125.08 49.881 146.694 46.067 260.942 103.463 239.509 107.277 125.08 49.881" fill="none" stroke="#231f20" stroke-linecap="round" stroke-linejoin="round" stroke-width=".5"/><path d="M122.974,74.112l-32.655-16.327,1.279-3.738,2.459-.492,60.754,30.331,3.496,1.787s1.739,1.111-.387,1.45l-9.084.338-1.45-.87-2.223.58-.868,4.578-11.007.105,1.468-5.87,19.084-1.248-2.444-1.144s-7.176.104-13.052.468-8.944-1.612-8.944-1.612l-9.725-5.516" fill="none" stroke="#231f20" stroke-linecap="round" stroke-linejoin="round" stroke-width=".5"/><path d="M91.599,54.047l34.228,17.409s2.38.852,1.184,1.476-7.124,3.224-7.124,3.224l-.209.776-.883,3.28s3.692,2.444,5.304,4.576,4.472,4.68,9.412,5.46" fill="none" stroke="#231f20" stroke-linecap="round" stroke-linejoin="round" stroke-width=".5"/><path d="M145.745,87.703l6.378,2.657s1.884,1.015,5.895.725,9.374-.966,10.968,2.078c0,0-.048,2.029-3.575,1.933l-1.353-.242-8.649.29s-2.416,0-4.204-.725-6.907-2.67-6.907-2.67" fill="none" stroke="#231f20" stroke-linecap="round" stroke-linejoin="round" stroke-width=".5"/><polyline points="169.405 93.918 211.211 114.712 212.953 118.741 217.961 121.245 223.795 120.26" fill="none" stroke="#231f20" stroke-linecap="round" stroke-linejoin="round" stroke-width=".5"/><ellipse cx="134.96" cy="79.146" rx="2.432" ry="8.78" transform="translate(34.463 199.056) rotate(-80.423)" fill="none" stroke="#231f20" stroke-linecap="round" stroke-linejoin="round" stroke-width=".5"/><line x1="223.583" y1="117.322" x2="91.005" y2="50.446" fill="none" stroke="#231f20" stroke-linecap="round" stroke-linejoin="round" stroke-width=".5"/><polygon points="129.503 84.355 128.922 86.681 127.63 84.614 129.503 84.355" fill="#231f20" stroke-width="0"/><path d="M152.576,88.311l8.076-.165s.795-.041,1.739.48c.757.418,1.979.96.6,1.079s-8.196.225-8.196.225c0,0-1.144.082-2.853-.865,0,0-.995-.746.634-.754Z" fill="none" stroke="#231f20" stroke-linecap="round" stroke-linejoin="round" stroke-width=".5"/><path d="M158.356,3.508l31.598.795,10.207,14.852-12.651-4.706s-24.508,18.519-16.746,39.421l-17.647-6.609s-7.594-21.719,17.708-39.046l-12.468-4.706Z" fill="#231f20" stroke="#fff" stroke-linecap="round" stroke-linejoin="round" stroke-width=".736"/><path d="M163.55,56.099l23.24,21.423,17.666-3.559-12.359-5.427s-4.707-30.355,15.415-39.96l-17.271-7.538s-20.57,10.308-14.463,40.361l-12.228-5.299Z" fill="#231f20" stroke="#fff" stroke-linecap="round" stroke-linejoin="round" stroke-width=".736"/><circle cx="322.68" cy="220.258" r="52.21" fill="none" stroke="#231f20" stroke-linecap="round" stroke-linejoin="round" stroke-width=".5"/><line x1="303.593" y1="192.088" x2="238.75" y2="175.877" fill="none" stroke="#fff" stroke-linecap="round" stroke-linejoin="round" stroke-width="3"/><line x1="238.75" y1="175.877" x2="303.593" y2="192.088" fill="none" stroke="#231f20" stroke-linecap="round" stroke-linejoin="round" stroke-width=".5"/><polygon points="83.046 93.572 88.823 89.819 87.907 102.666 65.88 104.718 71.654 100.967 47.481 88.614 58.872 81.213 83.046 93.572" fill="#231f20" stroke="#fff" stroke-linecap="round" stroke-linejoin="round" stroke-width=".791"/><polygon points="329.668 238.022 320.538 244.107 321.756 223.628 356.801 219.949 347.675 226.03 386.406 245.254 368.402 257.253 329.668 238.022" fill="#231f20" stroke="#fff" stroke-linecap="round" stroke-linejoin="round"/><circle cx="373.849" cy="207.476" r="15.254" fill="#000" stroke="#fff" stroke-miterlimit="10" stroke-width=".8"/><g isolation="isolate"><path d="M369.617,203.643v-1.538c1.449-.142,2.46-.377,3.032-.708s.999-1.113,1.282-2.347h1.583v15.896h-2.141v-11.304h-3.757Z" fill="#fff" stroke-width="0"/></g></svg>